<?xml version="1.0" encoding="UTF-8"?>
<svg version="1.1" xmlns="http://www.w3.org/2000/svg" width="225" height="225">
<path d="M0 0 C74.25 0 148.5 0 225 0 C225 74.25 225 148.5 225 225 C150.75 225 76.5 225 0 225 C0 150.75 0 76.5 0 0 Z " fill="#FDFDFD" transform="translate(0,0)"/>
<path d="M0 0 C5.28 0 10.56 0 16 0 C16 5.28 16 10.56 16 16 C10.72 16 5.44 16 0 16 C0 10.72 0 5.44 0 0 Z " fill="#101010" transform="translate(23,137)"/>
<path d="M0 0 C5.28 0 10.56 0 16 0 C16 5.28 16 10.56 16 16 C10.72 16 5.44 16 0 16 C0 10.72 0 5.44 0 0 Z " fill="#111111" transform="translate(23,120)"/>
<path d="M0 0 C5.28 0 10.56 0 16 0 C16 5.28 16 10.56 16 16 C10.72 16 5.44 16 0 16 C0 10.72 0 5.44 0 0 Z " fill="#101010" transform="translate(6,120)"/>
<path d="M0 0 C5.28 0 10.56 0 16 0 C16 5.28 16 10.56 16 16 C10.72 16 5.44 16 0 16 C0 10.72 0 5.44 0 0 Z " fill="#101010" transform="translate(23,103)"/>
<path d="M0 0 C5.28 0 10.56 0 16 0 C16 5.28 16 10.56 16 16 C10.72 16 5.44 16 0 16 C0 10.72 0 5.44 0 0 Z " fill="#0F0F0F" transform="translate(6,103)"/>
<path d="M0 0 C5.28 0 10.56 0 16 0 C16 5.28 16 10.56 16 16 C10.72 16 5.44 16 0 16 C0 10.72 0 5.44 0 0 Z " fill="#252525" transform="translate(75,86)"/>
<path d="M0 0 C5.28 0 10.56 0 16 0 C16 5.28 16 10.56 16 16 C10.72 16 5.44 16 0 16 C0 10.72 0 5.44 0 0 Z " fill="#030303" transform="translate(6,86)"/>
<path d="M0 0 C5.28 0 10.56 0 16 0 C16 5.28 16 10.56 16 16 C10.72 16 5.44 16 0 16 C0 10.72 0 5.44 0 0 Z " fill="#0F0F0F" transform="translate(58,69)"/>
<path d="M0 0 C3.26795396 0.24207066 6.03529503 0.47096824 8.9375 2.0625 C10.69220303 5.26225258 10.626852 8.4994894 10 12 C8.375 14.5 8.375 14.5 6 16 C2.85477278 16.31452272 0.84083641 16.42041821 -2 15 C-2 17.31 -2 19.62 -2 22 C-3.32 22 -4.64 22 -6 22 C-6 15.07 -6 8.14 -6 1 C-4.35 1 -2.7 1 -1 1 C-0.67 0.67 -0.34 0.34 0 0 Z " fill="#0C0C0C" transform="translate(213,112)"/>
<path d="M0 0 C1.7325 0.37125 1.7325 0.37125 3.5 0.75 C5.15 0.42 6.8 0.09 8.5 -0.25 C8.5 5.03 8.5 10.31 8.5 15.75 C6.85 15.42 5.2 15.09 3.5 14.75 C3.17 15.08 2.84 15.41 2.5 15.75 C-0.8125 16.125 -0.8125 16.125 -4.5 15.75 C-7.4236459 13.2011805 -8.34909176 11.55484394 -9.0625 7.75 C-8.05965398 2.40148787 -5.5501166 -0.3964369 0 0 Z " fill="#171717" transform="translate(149.5,112.25)"/>
<path d="M0 0 C4.95 0 9.9 0 15 0 C15 5.28 15 10.56 15 16 C10.05 16 5.1 16 0 16 C0 10.72 0 5.44 0 0 Z " fill="#141414" transform="translate(41,86)"/>
<path d="M0 0 C4.95 0 9.9 0 15 0 C15 5.28 15 10.56 15 16 C10.05 16 5.1 16 0 16 C0 10.72 0 5.44 0 0 Z " fill="#1D1D1D" transform="translate(24,86)"/>
<path d="M0 0 C4.95 0 9.9 0 15 0 C15 4.95 15 9.9 15 15 C10.05 15 5.1 15 0 15 C0 10.05 0 5.1 0 0 Z " fill="#000000" transform="translate(41,69)"/>
<path d="M0 0 C2.5 1.375 2.5 1.375 4 3 C4 3.66 4 4.32 4 5 C2.0625 5.5625 2.0625 5.5625 0 6 C-0.33 5.67 -0.66 5.34 -1 5 C-3.33297433 4.95907063 -5.66705225 4.95758277 -8 5 C-8 5.99 -8 6.98 -8 8 C-6.14375 8.433125 -6.14375 8.433125 -4.25 8.875 C2.16625817 10.53300654 2.16625817 10.53300654 4 12 C5.0625 14.8125 5.0625 14.8125 5 18 C3.00174494 21.0639911 1.47679786 22.66945319 -2.1640625 23.484375 C-6.67980746 23.75622587 -8.46187355 23.4392869 -12.0625 20.5 C-12.701875 19.675 -13.34125 18.85 -14 18 C-12.1875 17.375 -12.1875 17.375 -10 17 C-9.01 17.66 -8.02 18.32 -7 19 C-3.36060068 18.68269476 -3.36060068 18.68269476 0 18 C0 17.01 0 16.02 0 15 C-0.68707031 14.82984375 -1.37414062 14.6596875 -2.08203125 14.484375 C-2.98308594 14.24203125 -3.88414063 13.9996875 -4.8125 13.75 C-6.15248047 13.40195313 -6.15248047 13.40195313 -7.51953125 13.046875 C-10.41570457 11.82455303 -11.45299643 10.70725624 -13 8 C-12.92509796 4.92901621 -12.44344796 3.51439964 -10.4375 1.1875 C-6.9410948 -0.51587689 -3.82104359 -0.59508056 0 0 Z " fill="#121212" transform="translate(121,105)"/>
<path d="M0 0 C1.32 0 2.64 0 4 0 C4.33 2.31 4.66 4.62 5 7 C5.33 6.67 5.66 6.34 6 6 C9.4375 6.25 9.4375 6.25 13 7 C15.35119399 10.52679099 15.21443452 12.02879485 15.125 16.1875 C15.10695313 17.27417969 15.08890625 18.36085938 15.0703125 19.48046875 C15.03550781 20.72763672 15.03550781 20.72763672 15 22 C13.68 22 12.36 22 11 22 C10.67 18.37 10.34 14.74 10 11 C8.35 11 6.7 11 5 11 C4.67 14.63 4.34 18.26 4 22 C2.68 22 1.36 22 0 22 C0 14.74 0 7.48 0 0 Z " fill="#171717" transform="translate(65,106)"/>
<path d="M0 0 C2.4375 1.125 2.4375 1.125 4 3 C4.25 6.1875 4.25 6.1875 4 9 C0.37 9 -3.26 9 -7 9 C-6.01 10.485 -6.01 10.485 -5 12 C-1.41642759 12.25015873 -1.41642759 12.25015873 2 12 C2.33 12.99 2.66 13.98 3 15 C-0.59264452 16.19754817 -3.22717474 16.33094958 -7 16 C-9.4375 14.5 -9.4375 14.5 -11 12 C-11.80414661 7.95439643 -11.63828902 5.02126244 -9.4375 1.5 C-6.0761612 -0.56851618 -3.88040089 -0.48505011 0 0 Z " fill="#101010" transform="translate(94,112)"/>
<path d="M0 0 C4.95 0 9.9 0 15 0 C15 4.62 15 9.24 15 14 C13.68 13.67 12.36 13.34 11 13 C11.66 13 12.32 13 13 13 C12.7834375 12.45730469 12.566875 11.91460937 12.34375 11.35546875 C12.0653125 10.64003906 11.786875 9.92460938 11.5 9.1875 C11.2215625 8.47980469 10.943125 7.77210937 10.65625 7.04296875 C10 5 10 5 10 2 C8.68 2 7.36 2 6 2 C5.34 5.3 4.68 8.6 4 12 C4.66 12.33 5.32 12.66 6 13 C4.02 13.33 2.04 13.66 0 14 C0 9.38 0 4.76 0 0 Z " fill="#0F0F0F" transform="translate(58,87)"/>
<path d="M0 0 C5.94 0 11.88 0 18 0 C18 0.99 18 1.98 18 3 C15.69 3 13.38 3 11 3 C11 9.27 11 15.54 11 22 C9.68 22 8.36 22 7 22 C7 15.73 7 9.46 7 3 C4.69 3 2.38 3 0 3 C0 2.01 0 1.02 0 0 Z " fill="#0B0B0B" transform="translate(45,106)"/>
<path d="M0 0 C1.32 0 2.64 0 4 0 C4.33 3.63 4.66 7.26 5 11 C8.63619656 12.08084521 8.63619656 12.08084521 11 12 C11.33 8.37 11.66 4.74 12 1 C12.99 1 13.98 1 15 1 C15 5.95 15 10.9 15 16 C13.68 15.67 12.36 15.34 11 15 C9.845 15.2475 8.69 15.495 7.5 15.75 C4 16 4 16 1.5625 14.25 C-0.70769079 9.52800316 -0.32471952 5.15041235 0 0 Z " fill="#0E0E0E" transform="translate(188,112)"/>
<path d="M0 0 C5.28 0 10.56 0 16 0 C16 5.28 16 10.56 16 16 C10.72 16 5.44 16 0 16 C1.32 15.01 2.64 14.02 4 13 C4.74751373 9.51745287 4.74751373 9.51745287 5 6 C5.33 5.01 5.66 4.02 6 3 C7.32 3 8.64 3 10 3 C10.19335938 3.78246094 10.38671875 4.56492187 10.5859375 5.37109375 C10.84632812 6.38300781 11.10671875 7.39492187 11.375 8.4375 C11.63023438 9.44683594 11.88546875 10.45617187 12.1484375 11.49609375 C12.72573954 14.15570324 12.72573954 14.15570324 15 15 C15 10.38 15 5.76 15 1 C10.05 1 5.1 1 0 1 C0 0.67 0 0.34 0 0 Z " fill="#393939" transform="translate(58,86)"/>
<path d="M0 0 C2.9375 0.8125 2.9375 0.8125 4.9375 2.8125 C5.3125 6.25 5.3125 6.25 4.9375 9.8125 C3.25 11.8125 3.25 11.8125 0.9375 12.8125 C-2.26188696 12.73446617 -3.59379544 12.24995759 -5.9375 10.0625 C-7.0625 7.8125 -7.0625 7.8125 -6.9375 5.25 C-5.45832171 1.12943191 -4.55670545 -0.27898197 0 0 Z " fill="#BABABA" transform="translate(116.0625,140.1875)"/>
<path d="M0 0 C1.32 0 2.64 0 4 0 C4 1.32 4 2.64 4 4 C5.32 4 6.64 4 8 4 C8 5.32 8 6.64 8 8 C6.68 8 5.36 8 4 8 C4 10.97 4 13.94 4 17 C5.32 17 6.64 17 8 17 C8 17.99 8 18.98 8 20 C5.125 20.1875 5.125 20.1875 2 20 C-0.13586678 16.79619983 -0.23132175 15.98060033 -0.125 12.3125 C-0.10695312 11.50425781 -0.08890625 10.69601563 -0.0703125 9.86328125 C-0.03550781 8.94095703 -0.03550781 8.94095703 0 8 C-0.99 8 -1.98 8 -3 8 C-3 7.01 -3 6.02 -3 5 C-2.01 5 -1.02 5 0 5 C0 3.35 0 1.7 0 0 Z " fill="#242424" transform="translate(131,108)"/>
<path d="M0 0 C1.32 0 2.64 0 4 0 C4 1.65 4 3.3 4 5 C5.32 5 6.64 5 8 5 C8 5.99 8 6.98 8 8 C6.68 8 5.36 8 4 8 C4.33 10.64 4.66 13.28 5 16 C5.99 16.33 6.98 16.66 8 17 C8 17.99 8 18.98 8 20 C3.49625468 20.36516854 3.49625468 20.36516854 1.34375 18.78125 C-0.39217091 16.48014554 -0.31131194 15.16017456 -0.1875 12.3125 C-0.16042969 11.50425781 -0.13335937 10.69601563 -0.10546875 9.86328125 C-0.07066406 9.24839844 -0.03585938 8.63351563 0 8 C-0.99 8 -1.98 8 -3 8 C-3 6.68 -3 5.36 -3 4 C-2.01 4 -1.02 4 0 4 C0 2.68 0 1.36 0 0 Z " fill="#1B1B1B" transform="translate(177,108)"/>
<path d="M0 0 C1.60875 -0.04125 3.2175 -0.0825 4.875 -0.125 C5.77992188 -0.14820312 6.68484375 -0.17140625 7.6171875 -0.1953125 C10 0 10 0 12 2 C11.67 2.66 11.34 3.32 11 4 C7.9375 4.625 7.9375 4.625 5 5 C4.67 8.63 4.34 12.26 4 16 C2.68 16 1.36 16 0 16 C0 10.72 0 5.44 0 0 Z " fill="#181818" transform="translate(161,112)"/>
<path d="M0 0 C1.32 0 2.64 0 4 0 C4 4.95 4 9.9 4 15 C2.35 14.67 0.7 14.34 -1 14 C-0.67 12.68 -0.34 11.36 0 10 C-1.32 10 -2.64 10 -4 10 C-4 9.34 -4 8.68 -4 8 C-3.01 8 -2.02 8 -1 8 C-1 7.34 -1 6.68 -1 6 C-1.99 6 -2.98 6 -4 6 C-4 5.34 -4 4.68 -4 4 C-2.68 4 -1.36 4 0 4 C0 2.68 0 1.36 0 0 Z " fill="#080808" transform="translate(35,87)"/>
<path d="M0 0 C0.99 0.66 1.98 1.32 3 2 C3 3.65 3 5.3 3 7 C-0.3 7 -3.6 7 -7 7 C-7.33 7.99 -7.66 8.98 -8 10 C-8.75 7.25 -8.75 7.25 -9 4 C-6.46502446 0.29503575 -4.42948125 -0.68145865 0 0 Z " fill="#D5D5D5" transform="translate(76,140)"/>
<path d="M0 0 C3.29714793 0.32971479 4.6226839 0.6226839 7 3 C6.625 6.125 6.625 6.125 6 9 C3.125 9.625 3.125 9.625 0 10 C-2 8 -2 8 -2.25 5 C-2 2 -2 2 0 0 Z " fill="#F0F0F0" transform="translate(147,115)"/>
<path d="M0 0 C2.31 0 4.62 0 7 0 C7 0.66 7 1.32 7 2 C6.01 2 5.02 2 4 2 C4 5.63 4 9.26 4 13 C5.98 13 7.96 13 10 13 C10 13.33 10 13.66 10 14 C6.7 14 3.4 14 0 14 C0 9.38 0 4.76 0 0 Z " fill="#020202" transform="translate(76,87)"/>
<path d="M0 0 C1.32 0.33 2.64 0.66 4 1 C4.33 1.66 4.66 2.32 5 3 C5.33 2.01 5.66 1.02 6 0 C6.66 0 7.32 0 8 0 C8 3.3 8 6.6 8 10 C7.01 10 6.02 10 5 10 C4.67 9.34 4.34 8.68 4 8 C3.67 8.66 3.34 9.32 3 10 C2.01 10 1.02 10 0 10 C0 6.7 0 3.4 0 0 Z " fill="#E0E0E0" transform="translate(10,89)"/>
<path d="M0 0 C2.5 0.25 2.5 0.25 4.5 2.25 C4.17028521 5.54714793 3.8773161 6.8726839 1.5 9.25 C-1.125 8.875 -1.125 8.875 -3.5 8.25 C-4.125 5.375 -4.125 5.375 -4.5 2.25 C-2.5 0.25 -2.5 0.25 0 0 Z " fill="#F3F3F3" transform="translate(215.5,115.75)"/>
<path d="M0 0 C2.97 0 5.94 0 9 0 C9 0.33 9 0.66 9 1 C7.35 1 5.7 1 4 1 C4 4.96 4 8.92 4 13 C4.66 13.33 5.32 13.66 6 14 C4.02 14 2.04 14 0 14 C0 9.38 0 4.76 0 0 Z " fill="#000000" transform="translate(41,87)"/>
<path d="M0 0 C1.32 0 2.64 0 4 0 C5.31626692 3.61973402 6 6.09567131 6 10 C3.36 10 0.72 10 -2 10 C-1.54177532 6.53058454 -1.10868317 3.32604951 0 0 Z " fill="#EBEBEB" transform="translate(64,89)"/>
<path d="M0 0 C1.99954746 -0.04254356 4.00041636 -0.04080783 6 0 C7 1 7 1 7.0625 3.5625 C7.041875 4.366875 7.02125 5.17125 7 6 C5.02 6.99 5.02 6.99 3 8 C3 8.66 3 9.32 3 10 C2.01 10 1.02 10 0 10 C0 6.7 0 3.4 0 0 Z " fill="#DADADA" transform="translate(45,89)"/>
<path d="M0 0 C1.65 0 3.3 0 5 0 C5 4.62 5 9.24 5 14 C3.68 13.67 2.36 13.34 1 13 C1.66 13 2.32 13 3 13 C2.505 11.783125 2.01 10.56625 1.5 9.3125 C0.27520559 6.07513262 -0.32803185 3.49900643 0 0 Z " fill="#010101" transform="translate(68,87)"/>
<path d="M0 0 C5.28 0 10.56 0 16 0 C14.68 0.33 13.36 0.66 12 1 C12 1.66 12 2.32 12 3 C11.34 3 10.68 3 10 3 C10 4.65 10 6.3 10 8 C9.62875 7.401875 9.2575 6.80375 8.875 6.1875 C6.70188329 3.3658704 6.70188329 3.3658704 1 1 C1 5.95 1 10.9 1 16 C0.67 16 0.34 16 0 16 C0 10.72 0 5.44 0 0 Z " fill="#4B4B4B" transform="translate(6,86)"/>
<path d="M0 0 C1.98 0 3.96 0 6 0 C6 0.66 6 1.32 6 2 C5.01 2 4.02 2 3 2 C3 2.66 3 3.32 3 4 C3.99 4 4.98 4 6 4 C6 4.66 6 5.32 6 6 C5.01 6 4.02 6 3 6 C3 6.66 3 7.32 3 8 C3.99 8 4.98 8 6 8 C6 8.66 6 9.32 6 10 C4.02 10 2.04 10 0 10 C0 6.7 0 3.4 0 0 Z " fill="#F1F1F1" transform="translate(28,89)"/>
<path d="M0 0 C0.66 0 1.32 0 2 0 C2 0.99 2 1.98 2 3 C3.32 3 4.64 3 6 3 C6 3.66 6 4.32 6 5 C4.68 5 3.36 5 2 5 C2 7.97 2 10.94 2 14 C3.32 14.33 4.64 14.66 6 15 C4.68 15.33 3.36 15.66 2 16 C-0.67927341 11.98108988 -0.15601248 9.75838077 0 5 C-0.66 5 -1.32 5 -2 5 C-2 4.34 -2 3.68 -2 3 C-1.34 3 -0.68 3 0 3 C0 2.01 0 1.02 0 0 Z " fill="#868686" transform="translate(83,137)"/>
<path d="M0 0 C1.98 0 3.96 0 6 0 C5.01 0.33 4.02 0.66 3 1 C3 4.96 3 8.92 3 13 C3.66 13.33 4.32 13.66 5 14 C3.35 14 1.7 14 0 14 C0 9.38 0 4.76 0 0 Z " fill="#000000" transform="translate(7,87)"/>
<path d="M0 0 C0.66 0 1.32 0 2 0 C3.38232443 1.62626404 4.71937515 3.2925002 6 5 C5.67 5.66 5.34 6.32 5 7 C4.34 6.34 3.68 5.68 3 5 C2.67 8.63 2.34 12.26 2 16 C1.34 16 0.68 16 0 16 C0 10.72 0 5.44 0 0 Z " fill="#626262" transform="translate(51,136)"/>
<path d="M0 0 C0.33 0 0.66 0 1 0 C1.3125 2.3125 1.3125 2.3125 1 5 C-2.28889579 7.72508509 -4.78287443 8.36146791 -9 8 C-9.66 6.68 -10.32 5.36 -11 4 C-7.37 4 -3.74 4 0 4 C0 2.68 0 1.36 0 0 Z " fill="#C9C9C9" transform="translate(98,117)"/>
<path d="M0 0 C0.66 0 1.32 0 2 0 C2 5.61 2 11.22 2 17 C1.34 17 0.68 17 0 17 C-1.22329074 13.33012779 -0.88021006 10.66032178 -0.5625 6.8125 C-0.46066406 5.54019531 -0.35882813 4.26789063 -0.25390625 2.95703125 C-0.17011719 1.98121094 -0.08632813 1.00539062 0 0 Z " fill="#777777" transform="translate(63,135)"/>
<path d="M0 0 C0.268125 0.639375 0.53625 1.27875 0.8125 1.9375 C1.88667752 4.33131686 1.88667752 4.33131686 5 5 C6.32 5.66 7.64 6.32 9 7 C4.05 7 -0.9 7 -6 7 C-5.01 6.01 -4.02 5.02 -3 4 C-2.01 4 -1.02 4 0 4 C0 2.68 0 1.36 0 0 Z " fill="#252525" transform="translate(13,95)"/>
<path d="M0 0 C0.33 0.66 0.66 1.32 1 2 C0.67 2.66 0.34 3.32 0 4 C2.97 4 5.94 4 9 4 C8.67 2.68 8.34 1.36 8 0 C8.66 0 9.32 0 10 0 C10 1.65 10 3.3 10 5 C6.7 5 3.4 5 0 5 C-0.33 5.99 -0.66 6.98 -1 8 C-1.625 5.125 -1.625 5.125 -2 2 C-1.34 1.34 -0.68 0.68 0 0 Z " fill="#2F2F2F" transform="translate(69,142)"/>
<path d="M0 0 C0.66 0 1.32 0 2 0 C2 2.64 2 5.28 2 8 C3.32 8 4.64 8 6 8 C6 8.66 6 9.32 6 10 C4.02 10 2.04 10 0 10 C0 6.7 0 3.4 0 0 Z " fill="#FFFFFF" transform="translate(80,89)"/>
<path d="M0 0 C0.66 0 1.32 0 2 0 C2.67119549 1.4562545 3.33681807 2.91507867 4 4.375 C4.556875 5.59316406 4.556875 5.59316406 5.125 6.8359375 C6 9 6 9 6 11 C5.34 11 4.68 11 4 11 C3.34 9.35 2.68 7.7 2 6 C1.01 6 0.02 6 -1 6 C-0.67 4.02 -0.34 2.04 0 0 Z " fill="#5D5D5D" transform="translate(98,141)"/>
<path d="M0 0 C0.66 0 1.32 0 2 0 C2 3.3 2 6.6 2 10 C1.01 10 0.02 10 -1 10 C-1.33 8.68 -1.66 7.36 -2 6 C-1.34 6 -0.68 6 0 6 C0 4.02 0 2.04 0 0 Z " fill="#F9F9F9" transform="translate(16,89)"/>
<path d="M0 0 C1.32 0 2.64 0 4 0 C4.33 1.65 4.66 3.3 5 5 C3.68 5.33 2.36 5.66 1 6 C0.67 4.02 0.34 2.04 0 0 Z " fill="#C2C2C2" transform="translate(64,89)"/>
<path d="M0 0 C2.4375 0.375 2.4375 0.375 5 1 C5.33 1.66 5.66 2.32 6 3 C3.36 3 0.72 3 -2 3 C-1.34 2.01 -0.68 1.02 0 0 Z " fill="#F0F0F0" transform="translate(89,115)"/>
</svg>
